<svg version="1.1" id="Layer_1" xmlns="http://www.w3.org/2000/svg" xmlns:xlink="http://www.w3.org/1999/xlink" x="0px" y="0px"
	 width="100%" viewBox="0 0 800 800" enable-background="new 0 0 800 800" xml:space="preserve">
<path fill="#000000" opacity="1.000000" stroke="none" 
	d="
M473.999878,651.371155 
	C374.850830,651.372070 276.201691,651.439880 177.552719,651.339722 
	C139.870819,651.301453 112.831581,633.706970 96.074051,600.285522 
	C90.505821,589.180298 87.885712,577.096497 87.791084,564.618469 
	C87.667259,548.289124 87.756866,531.958069 87.780785,515.627747 
	C87.794136,506.507141 92.917892,500.701050 100.916199,500.667542 
	C109.053459,500.633453 114.171577,506.268036 114.195679,515.433777 
	C114.238625,531.764099 114.205154,548.094543 114.228088,564.424927 
	C114.269630,593.993225 136.933578,620.224487 166.113861,624.670837 
	C170.910278,625.401733 175.685028,625.663391 180.516739,625.662720 
	C328.490387,625.643127 476.464020,625.649414 624.437683,625.644104 
	C660.348999,625.642822 687.667786,598.397095 687.773376,562.463684 
	C687.818909,546.966675 687.775208,531.469421 687.787537,515.972290 
	C687.795044,506.500977 692.879395,500.673767 701.102295,500.668854 
	C709.109558,500.664062 714.174561,506.397888 714.195618,515.625977 
	C714.234070,532.456238 714.711365,549.303894 714.122803,566.113342 
	C712.804382,603.767883 688.209351,636.395874 652.486755,647.422058 
	C643.297363,650.258423 634.004272,651.383057 624.470398,651.379272 
	C574.480225,651.359436 524.490051,651.370728 473.999878,651.371155 
z"/>
<path fill="#000000" opacity="1.000000" stroke="none" 
	d="
M414.231506,318.000000 
	C414.259705,372.148529 414.285767,425.796997 414.328644,479.445496 
	C414.328888,479.734558 414.566193,480.023438 414.978973,480.965759 
	C416.757507,479.270691 418.411438,477.759033 419.994263,476.176270 
	C452.152283,444.019470 484.274078,411.826324 516.476318,379.713867 
	C523.306702,372.902618 533.580872,374.599121 537.824158,382.986023 
	C540.567810,388.408966 539.467468,393.393188 534.159790,398.714050 
	C518.981628,413.929871 503.758820,429.101135 488.559418,444.295776 
	C462.872803,469.974304 437.199341,495.666016 411.500916,521.332703 
	C404.688385,528.136719 397.258362,528.237305 390.556061,521.539612 
	C349.664001,480.675598 308.794128,439.789337 267.937347,398.890045 
	C262.719940,393.667206 261.474854,388.438934 263.962006,383.117767 
	C266.437927,377.820618 271.751434,375.057526 277.987701,375.686584 
	C281.958344,376.087097 284.557068,378.578125 287.178925,381.206787 
	C318.826813,412.936615 350.512543,444.628662 382.125702,476.393005 
	C383.619446,477.893890 384.525665,479.979431 385.705536,481.792694 
	C386.396698,481.361786 387.087891,480.930878 387.779053,480.499969 
	C387.779053,478.254547 387.779236,476.009094 387.779022,473.763641 
	C387.768494,371.129089 387.753876,268.494568 387.754120,165.860016 
	C387.754150,156.560532 392.659058,150.813446 400.605103,150.656952 
	C408.881927,150.493942 414.238739,156.091492 414.241791,165.047958 
	C414.254883,203.369370 414.235748,241.690765 414.229675,280.012177 
	C414.227692,292.508118 414.229736,305.004059 414.231506,318.000000 
z"/>
</svg>